<?xml version="1.0" encoding="iso-8859-1"?>
<!-- Generator: Adobe Illustrator 19.0.0, SVG Export Plug-In . SVG Version: 6.00 Build 0)  -->
<svg version="1.1" id="Layer_1" xmlns="http://www.w3.org/2000/svg" xmlns:xlink="http://www.w3.org/1999/xlink" x="0px" y="0px"
	 viewBox="0 0 490 490" style="enable-background:new 0 0 490 490;" xml:space="preserve">
<g>
	<path d="M309.55,278.8V64.5c0-35.4-29.1-64.5-64.5-64.5s-64.5,29.1-64.5,64.5v214.3c-32.3,21.8-51,57.2-51,96.8
		c0,61.4,51.1,114.4,114.4,114.4c67.6,0,116.5-53.6,116.5-115.5C360.55,336,341.85,299.6,309.55,278.8z M241.95,449.4
		c-40.8,0-73.9-34.3-73.9-73.9c0-28.1,15.6-53.1,40.6-66.6c7.3-3.1,11.4-10.4,11.4-17.7V65.5c0-13.5,10.4-23.9,23.9-23.9
		c12.5,0,23.9,10.4,20.8,22.9v225.8c0,7.3,5.2,14.6,11.4,17.7c25,13.5,40.6,38.5,40.6,66.6C316.85,416.6,282.85,449.4,241.95,449.4z
		"/>
</g>
<g>
</g>
<g>
</g>
<g>
</g>
<g>
</g>
<g>
</g>
<g>
</g>
<g>
</g>
<g>
</g>
<g>
</g>
<g>
</g>
<g>
</g>
<g>
</g>
<g>
</g>
<g>
</g>
<g>
</g>
</svg>
